<svg xmlns="http://www.w3.org/2000/svg" viewBox="0 0 146 54"><path fill="#ce2533" d="M21.5 2.2h122.3v35.3H39.1L29 47.7V37.5H3.8L21.5 2.2zM20.1 0L.3 39.7h26.5V53L40 39.7h106V0H20.1zm22.4 10.3c0 .8-.7 1.4-1.4 1.4s-1.4-.6-1.4-1.4c0-.9.6-1.4 1.4-1.4.8 0 1.4.5 1.4 1.4zM40 26.5h2.2V13.2H40v13.3zm7-9.1v9.1h-2.2V13.2h1.8l.3 1.4c.5-1.2 1.6-1.4 2.3-1.5 2.4-.1 4.4 2.1 4.4 4.4v9.1h-2.2v-9.1c0-1.2-1-2.2-2.2-2.2-1.2 0-2.2 1-2.2 2.1m11.1 9.1h-2.2V12.1c0-2.6 2.5-4.4 5.2-4.4v2.2c-1.6 0-3 1-3 2.2v4.1h2.7v2.2h-2.7v8.1zm14-4.3c0 3-2.3 4.4-4.5 4.4-2.3 0-4.5-1.4-4.5-4.4v-4.8c0-3 2.2-4.4 4.5-4.4s4.5 1.4 4.5 4.4v4.8zm-2.3-4.8c0-1.4-1.1-2.2-2.3-2.2-1.1 0-2.3.7-2.3 2.2v4.8c0 1.4 1.2 2.1 2.3 2.1 1.1 0 2.3-.7 2.3-2.1v-4.8zm9 14.5c-1 0-2.4-.5-3.5-1.5l1.3-1.8c.8.7 1.7 1 2.2 1 1.2 0 2.2-.9 2.2-2.1v-2.3c-.4 1.1-1.5 1.4-2.2 1.4-2.3 0-4.4-1.5-4.4-4.1v-5.3c0-2.2 2.2-4.3 4.4-4.1.9.1 2 .4 2.3 1.7l.2-1.6h1.8v14.4c.2 2.5-1.9 4.3-4.3 4.3zm-2.1-9.4c-.1 1.3 1.1 1.9 2.3 1.9 1 0 2.1-.7 2.1-1.8v-5.4c0-1-1.2-1.8-2.2-1.8-1.1 0-2.2.8-2.2 1.9v5.2zm9 4V13.3h1.8l.2 1.4c.8-2 2.9-2 4.4-.8l-.8 2C90 15 88 15.2 87.8 17v9.5h-2.1zm7.3-4.3v-.8c0-2.3 1.8-4.3 4.3-4.3.9 0 2 .6 2.3 1.5l-.1-1.2c0-1.2-1-2.1-2.2-2.1-.6 0-1.4.3-2.1 1L94 14.5c.9-.9 2.2-1.5 3.3-1.5 2.3 0 4.4 2 4.4 4.4v9H100l-.2-1.4c-.3 1.2-1.7 1.6-2.4 1.6-2.4.1-4.4-2-4.4-4.4m4.4 2.2c1 0 2.2-.9 2.2-1.8v-1.4c0-1.1-1-1.9-2.2-1.9-1.2 0-2.1.9-2.1 2.1v.8c-.1 1.2.9 2.2 2.1 2.2m9 2.1h-2.2V13.2h1.7l.3 1.3c.6-1.1 1.6-1.4 2.4-1.5 1.1 0 2.6.5 3.3 2.2.7-1.7 2-2.2 3.3-2.2 2.4 0 4.3 1.9 4.3 4.4v9.1h-2.2v-9.1c0-3-4.3-2.9-4.3 0v9.1h-2.2v-9.1c0-1.2-1-2.2-2.2-2.2-1.2 0-2.1 1-2.1 2.2v9.1z"/></svg>